HIERARCHY
ROOT Hips
{
	OFFSET -3.958830 18.904000 13.208200
	CHANNELS 6 Xposition Yposition Zposition Zrotation Yrotation Xrotation 
	JOINT LHipJoint
	{
		OFFSET 0.000000 0.000000 0.000000
		CHANNELS 3 Zrotation Yrotation Xrotation
		JOINT LeftUpLeg
		{
			OFFSET 1.800000 -1.400000 0.085000
			CHANNELS 3 Zrotation Yrotation Xrotation
			JOINT LeftLeg
			{
				OFFSET 2.215000 -6.000000 0.000000
				CHANNELS 3 Zrotation Yrotation Xrotation
				JOINT LeftFoot
				{
					OFFSET 2.500000 -6.900000 0.000000
					CHANNELS 3 Zrotation Yrotation Xrotation
					JOINT LeftToeBase
					{
						OFFSET 0.200000 -0.500000 1.950000
						CHANNELS 3 Zrotation Yrotation Xrotation
						End Site
						{
							OFFSET 0.000000 0.000000 0.000000
						}
					}
				}
			}
		}
	}
	JOINT RHipJoint
	{
		OFFSET 0.000000 0.000000 0.000000
		CHANNELS 3 Zrotation Yrotation Xrotation
		JOINT RightUpLeg
		{
			OFFSET -1.800000 -1.400000 0.085000
			CHANNELS 3 Zrotation Yrotation Xrotation
			JOINT RightLeg
			{
				OFFSET -2.215000 -6.000000 0.000000
				CHANNELS 3 Zrotation Yrotation Xrotation
				JOINT RightFoot
				{
					OFFSET -2.500000 -6.900000 0.000000
					CHANNELS 3 Zrotation Yrotation Xrotation
					JOINT RightToeBase
					{
						OFFSET -0.200000 -0.500000 1.950000
						CHANNELS 3 Zrotation Yrotation Xrotation
						End Site
						{
							OFFSET 0.000000 0.000000 0.000000
						}
					}
				}
			}
		}
	}
	JOINT LowerBack
	{
		OFFSET 0.000000 0.000000 0.000000
		CHANNELS 3 Zrotation Yrotation Xrotation
		JOINT Spine
		{
			OFFSET -0.087000 1.940000 -0.288900
			CHANNELS 3 Zrotation Yrotation Xrotation
			JOINT Spine1
			{
				OFFSET 0.000000 1.950000 0.060000
				CHANNELS 3 Zrotation Yrotation Xrotation
				JOINT Neck
				{
					OFFSET 0.000000 0.000000 0.000000
					CHANNELS 3 Zrotation Yrotation Xrotation
					JOINT Neck1
					{
						OFFSET 0.000000 1.600000 0.340000
						CHANNELS 3 Zrotation Yrotation Xrotation
						JOINT Head
						{
							OFFSET 0.000000 1.667000 -0.240000
							CHANNELS 3 Zrotation Yrotation Xrotation
							End Site
							{
								OFFSET 0.000000 0.000000 0.000000
							}
						}
					}
				}
				JOINT LeftShoulder
				{
					OFFSET 0.000000 0.000000 0.000000
					CHANNELS 3 Zrotation Yrotation Xrotation
					JOINT LeftArm
					{
						OFFSET 2.700000 1.550000 -0.730000
						CHANNELS 3 Zrotation Yrotation Xrotation
						JOINT LeftForeArm
						{
							OFFSET 5.450000 0.000000 0.000000
							CHANNELS 3 Zrotation Yrotation Xrotation
							JOINT LeftHand
							{
								OFFSET 3.450000 0.000000 0.000000
								CHANNELS 3 Zrotation Yrotation Xrotation
								JOINT LeftHandIndex1
								{
									OFFSET 0.750000 0.000000 0.000000
									CHANNELS 3 Zrotation Yrotation Xrotation
									End Site
									{
										OFFSET 0.000000 0.000000 0.000000
									}
								}
							}
						}
					}
				}
				JOINT RightShoulder
				{
					OFFSET 0.000000 0.000000 0.000000
					CHANNELS 3 Zrotation Yrotation Xrotation
					JOINT RightArm
					{
						OFFSET -2.700000 1.550000 -0.730000
						CHANNELS 3 Zrotation Yrotation Xrotation
						JOINT RightForeArm
						{
							OFFSET -5.450000 0.000000 0.000000
							CHANNELS 3 Zrotation Yrotation Xrotation
							JOINT RightHand
							{
								OFFSET -3.450000 0.000000 0.000000
								CHANNELS 3 Zrotation Yrotation Xrotation
								JOINT RightHandIndex1
								{
									OFFSET -0.750000 0.000000 0.000000
									CHANNELS 3 Zrotation Yrotation Xrotation
									End Site
									{
										OFFSET 0.000000 0.000000 0.000000
									}
								}
							}
						}
					}
				}
			}
		}
	}
}
MOTION
Frames: 12
Frame Time: 0.016667
4.297430 17.211500 -4.092690 3.839413 -3.107793 -2.884270 -15.298400 12.532888 3.629660 0.685187 -3.043829 -10.812151 -17.268656 21.644329 49.278418 1.696633 11.535716 0.796510 0.207260 0.091080 0.087270 18.235063 -10.338024 2.928760 -3.257025 0.690007 -11.396355 13.681796 -4.573935 4.993859 -0.096801 -3.453803 3.255068 0.129950 0.120510 0.094930 -3.327659 -1.205453 -7.961012 7.338251 -1.331172 10.848024 -2.328447 -0.990699 6.972969 5.962507 -8.943753 -9.351847 -16.904519 -0.524336 33.465620 -9.439290 -6.048120 -3.523780 -19.597928 -2.797594 3.193709 -49.693027 3.416208 -7.060985 -15.412996 -21.191520 0.634616 -3.744555 3.112048 0.010510 0.121220 -0.130520 0.109050 8.389324 13.969295 4.798734 0.135433 16.962153 -5.966871 -125.739693 24.166017 -50.044035 2.146423 -1.973508 -0.032350 0.078790 -0.017320 -0.022330 
4.237990 17.188060 -4.164020 2.934209 -2.181262 -2.840544 -15.253590 12.727560 3.379729 -0.159548 -2.393572 -9.473167 -15.057006 18.392649 44.809097 1.347951 10.228340 1.182000 0.208680 0.090980 0.081630 18.272171 -10.372969 3.016727 -2.450205 0.860757 -11.945231 14.456250 -4.665598 5.213644 -0.093526 -3.450591 3.255621 0.136210 0.131680 0.086840 -3.454355 -1.371960 -7.795274 7.985942 -2.006147 10.149074 -2.652430 -1.441884 7.378418 5.162926 -10.410468 -9.277527 -19.947221 -0.104479 32.796051 -9.764740 -6.530210 -3.567960 -18.095281 -1.741098 2.983887 -50.568312 2.180619 -6.480391 -16.127832 -22.454718 0.941012 -3.747411 3.114914 0.005110 0.121740 -0.140970 0.114120 8.406042 13.503004 4.795666 2.216423 16.643185 -5.604474 -124.430540 26.616040 -52.998196 2.127747 -1.944955 -0.038130 0.095080 -0.014360 -0.016380 
4.172770 17.169230 -4.236930 2.126875 -1.513815 -2.839799 -15.229057 12.905251 3.169848 -0.657417 -1.738126 -8.241492 -12.986567 15.899568 41.092585 1.067633 9.171679 1.509813 0.208900 0.091600 0.074770 18.295543 -10.379584 3.078684 -1.633843 1.057991 -12.557930 15.021958 -4.749547 5.610098 -0.085430 -3.428670 3.261058 0.144360 0.141680 0.075620 -3.531211 -1.569630 -7.630685 8.252420 -2.553777 9.488718 -2.744175 -1.820783 7.662634 4.270804 -11.884950 -9.275938 -23.138935 0.482473 31.970767 -10.060360 -6.917520 -3.735090 -16.391824 -0.622264 2.867390 -51.774734 1.035354 -5.903451 -16.848566 -23.843228 1.269709 -3.747067 3.117654 0.002460 0.120420 -0.151160 0.116650 8.427688 13.076935 4.772673 4.477494 16.523354 -5.247987 -122.797637 29.216792 -55.651975 2.109169 -1.904158 -0.046650 0.114410 -0.008470 -0.012080 
4.105230 17.153080 -4.313210 1.437775 -0.807962 -2.779039 -15.220438 13.046656 3.007134 -0.902978 -1.242616 -7.361931 -11.069638 14.127052 38.607080 0.872302 8.446435 1.749839 0.197170 0.077080 0.060890 18.308497 -10.363042 3.115361 -0.959330 1.291501 -13.322201 15.478417 -4.846501 6.181354 -0.066127 -3.405335 3.268324 0.146670 0.163820 0.064960 -3.571705 -1.764589 -7.479211 8.161690 -2.930491 8.812343 -2.656579 -2.062101 7.794687 3.293834 -13.107592 -9.341970 -25.907818 0.986717 30.839911 -10.276330 -7.217070 -3.570000 -14.574509 0.391076 2.900898 -53.065758 0.003143 -5.325385 -17.864630 -25.563194 1.715944 -3.751424 3.129114 -0.006090 0.128840 -0.170880 0.117940 8.514171 12.626477 4.779426 6.915651 16.200336 -4.966630 -121.114997 31.911178 -58.211882 2.091557 -1.857870 -0.061320 0.134310 0.003260 -0.007450 
4.035060 17.142050 -4.389500 0.936124 0.017279 -2.678183 -15.228522 13.171620 2.887146 -0.951197 -0.891312 -6.762746 -9.467448 12.956520 37.158891 0.743390 8.013970 1.907993 0.166770 0.040420 0.034560 18.306833 -10.328088 3.120600 -0.509683 1.582692 -14.360099 15.805555 -5.013901 7.227541 -0.028721 -3.389967 3.279290 0.141160 0.204440 0.050120 -3.568872 -1.984768 -7.337545 7.615843 -3.267828 8.102549 -2.418220 -2.294681 7.783161 2.220830 -14.074699 -9.460933 -28.206665 1.503760 29.443593 -10.516140 -7.270460 -2.885080 -12.785938 1.239529 3.116039 -54.357662 -0.718275 -4.838355 -18.848561 -27.480745 2.209718 -3.766250 3.141535 -0.021830 0.153200 -0.208110 0.117040 8.844618 12.166054 4.801978 9.671372 15.806932 -4.639231 -119.455774 35.066782 -61.249811 2.068924 -1.792625 -0.088690 0.158130 0.024860 -0.004980 
3.965350 17.139420 -4.469930 0.334257 0.886987 -2.604687 -15.244797 13.296259 2.786476 -0.568918 -0.654193 -6.471739 -8.278571 12.173122 36.165646 0.660119 7.724325 2.015942 0.147530 0.025020 -0.001190 18.294738 -10.273162 3.125237 -0.130345 1.926333 -15.509919 16.120164 -5.202335 8.438658 -0.002567 -3.379291 3.283934 0.142230 0.241110 0.041380 -3.539330 -2.238804 -7.224627 6.984667 -3.607431 7.618039 -1.905126 -2.556604 7.657536 1.144986 -14.861521 -9.679424 -30.152132 2.043743 27.848800 -10.152950 -7.374600 -2.575650 -10.957699 1.913722 3.517112 -56.073124 -1.203534 -4.573009 -19.652025 -29.752090 2.702381 -3.759885 3.176612 -0.036310 0.168810 -0.233370 0.127640 9.188007 11.780940 4.837435 12.492619 15.274045 -4.497672 -117.437024 38.262999 -63.729017 2.051052 -1.717461 -0.104080 0.176390 0.038720 0.008570 
3.896120 17.149020 -4.559910 -0.152749 1.712923 -2.687442 -15.268377 13.416956 2.718689 -0.288209 -0.522467 -6.428667 -7.218663 11.578003 35.640892 0.595245 7.518672 2.090826 0.143510 0.026270 -0.013450 18.270876 -10.216372 3.123594 -0.024543 2.299903 -16.742200 16.394276 -5.464259 10.013271 0.011403 -3.382808 3.280108 0.150570 0.257840 0.024320 -3.482274 -2.503215 -7.145884 6.157573 -3.913636 7.443172 -1.483594 -2.781923 7.564180 0.288117 -15.400153 -9.987926 -31.636014 2.697716 26.371381 -9.826910 -7.136200 -2.765980 -9.495898 2.182294 3.995046 -57.473118 -1.561865 -4.439644 -20.387434 -32.151260 3.199681 -3.735381 3.205021 -0.037310 0.170240 -0.244620 0.135170 9.511038 11.645457 4.950241 15.674730 14.825833 -4.511191 -114.857672 41.495074 -65.462070 2.031479 -1.607437 -0.119600 0.198540 0.040990 0.012390 
3.830910 17.169340 -4.651920 -0.739042 2.334084 -2.838475 -15.288091 13.538648 2.656560 -0.028271 -0.441614 -6.620147 -5.985593 10.930877 35.265703 0.526531 7.300009 2.165790 0.153360 0.044260 -0.013960 18.245880 -10.174084 3.132478 0.051247 2.748709 -18.168703 16.462183 -5.761058 11.975168 0.014512 -3.388704 3.269866 0.165430 0.265040 0.006280 -3.426659 -2.737173 -7.087053 5.421748 -4.127287 7.521772 -0.980974 -2.926593 7.374410 -0.436211 -15.793767 -10.258495 -32.607285 3.032355 24.723829 -9.146590 -7.152220 -3.722780 -8.284213 2.467694 4.426843 -59.113157 -1.773630 -4.527564 -20.892202 -34.887971 3.679635 -3.694986 3.227798 -0.027120 0.157820 -0.241810 0.144590 9.833835 11.432104 5.053463 18.837804 14.158863 -4.644462 -111.740931 45.337300 -66.933993 2.009269 -1.429684 -0.131110 0.227700 0.035690 0.017530 
3.770460 17.193730 -4.746780 -1.403449 2.971959 -2.979478 -15.295810 13.644628 2.588393 0.207146 -0.386410 -6.881869 -4.614920 10.160056 34.698738 0.440062 7.026247 2.255619 0.169100 0.070250 -0.013750 18.229682 -10.145158 3.156811 -0.265582 3.268847 -19.867905 16.687704 -6.192287 14.326175 0.002242 -3.462840 3.230192 0.185240 0.269650 -0.010250 -3.402773 -2.912295 -7.037810 4.924836 -4.329289 7.725223 -0.793328 -3.068304 7.138581 -1.017935 -15.987514 -10.403800 -32.878770 3.126836 23.013991 -8.121540 -7.263350 -5.115530 -7.441484 2.758865 4.742025 -60.324064 -1.867410 -4.729001 -21.642156 -37.823234 4.288558 -3.653189 3.251798 -0.010650 0.141180 -0.234200 0.154530 10.206228 11.025230 5.088545 22.260216 13.283472 -4.923523 -107.700275 49.466899 -67.061040 1.961903 -1.163137 -0.141700 0.259370 0.030920 0.022130 
3.716570 17.226930 -4.842450 -2.210011 3.778203 -3.156212 -15.293669 13.739066 2.505904 0.457570 -0.360030 -7.163703 -2.959475 9.211588 33.935769 0.336916 6.690739 2.365231 0.191270 0.100930 -0.009560 18.221937 -10.121134 3.206218 -0.971263 3.870286 -21.823239 17.115617 -6.831417 17.200817 -0.031296 -3.651413 3.146153 0.207770 0.270020 -0.024240 -3.409399 -3.042828 -7.001375 4.777710 -4.529403 8.059437 -0.754746 -3.216322 6.820747 -1.469470 -16.100570 -10.448150 -32.748301 2.921373 21.248381 -7.036930 -7.523670 -6.696930 -6.953140 3.017685 4.962829 -61.246337 -1.950085 -4.930701 -22.638638 -40.810613 5.035588 -3.612277 3.278687 0.008520 0.122750 -0.225280 0.164680 10.652597 10.577889 5.036396 25.297356 12.106602 -5.513334 -102.873201 53.666640 -65.451587 1.863935 -0.788786 -0.150000 0.287980 0.024300 0.024630 
3.667750 17.263660 -4.941860 -3.334093 4.833667 -3.382835 -15.287226 13.801134 2.398887 0.869199 -0.432997 -7.612759 -1.051634 8.223963 33.482584 0.241434 6.394928 2.463518 0.210760 0.124850 0.000660 18.224207 -10.061415 3.316837 -1.988414 4.639099 -24.057205 18.302698 -7.880259 20.599590 -0.107319 -4.047352 2.985738 0.225930 0.268160 -0.034560 -3.440723 -3.141610 -7.001809 5.093896 -4.698156 8.502107 -0.608445 -3.333000 6.461290 -1.756547 -16.149664 -10.445175 -32.187261 2.117331 19.449905 -6.297100 -8.031280 -8.274940 -6.541518 3.199732 5.187436 -62.351937 -2.196457 -5.052400 -23.990982 -44.301430 6.060658 -3.572224 3.308736 0.027570 0.106210 -0.214750 0.172920 10.856979 10.198044 4.873263 27.757115 10.386665 -6.933857 -96.312485 58.266822 -61.110262 1.656430 -0.264489 -0.158330 0.314350 0.016390 0.025240 
3.622050 17.307370 -5.044280 -4.536213 5.844723 -3.765011 -15.276640 13.808501 2.276345 1.365976 -0.487486 -7.834344 0.563594 7.373652 32.884322 0.165501 6.120790 2.551239 0.235080 0.153790 0.016720 18.241122 -9.954468 3.494152 -3.535713 5.514196 -26.455142 20.372205 -9.489603 24.463103 -0.250297 -4.710823 2.727903 0.240110 0.249630 -0.041970 -3.497158 -3.197182 -7.050681 5.720126 -4.866689 9.064789 -0.729337 -3.450164 6.116940 -1.797693 -16.140177 -10.421138 -31.459197 0.969300 18.105826 -5.594810 -8.809690 -10.072700 -6.456482 2.931683 5.394598 -63.073277 -2.716474 -5.048452 -24.956105 -47.371843 6.955042 -3.526726 3.330331 0.052440 0.077940 -0.192490 0.178030 10.895465 10.299870 4.626256 30.342706 8.529086 -9.648536 -86.893232 63.477525 -53.915126 1.334528 0.243379 -0.156620 0.331520 0.004240 0.025520 
